# xmcd CD database file
#
# Track frame offsets:
#	187
#	15115
#	45530
#	84927
#	113327
#	137370
#	159505
#	184450
#	207560
#	239595
#
# Disc length: 3571 seconds
#
# Revision: 0
# Processed by: cddbd v1.5PL3 Copyright (c) Steve Scherf et al.
# Submitted via: CDex 1.51
#
DISCID=740df10a
DTITLE=Tensor Saxophone - Do! Jazz
DYEAR=1997
DGENRE=Jazz
TTITLE0=Stan Getz:I've Got You Under
TTITLE1=Sonny Rollins:St. Thomas
TTITLE2=Hank Mobley: Little Girl Blue 
TTITLE3=John Coltrane: Violets For Your Furs
TTITLE4=Eddie "Lockjaw" Davis: I Let A Song Go Out Of My Heart
TTITLE5=Johnny Griffin: Hush-A^Bye
TTITLE6=Stanley Turrentine: Five Spot After Dark
TTITLE7=Jimmy Heath: On The Trail
TTITLE8=Wayne Shorter: Tom Thumb
TTITLE9=Joe Henderson: Invitation
EXTD=YEAR: 1997
EXTT0=
EXTT1=
EXTT2=
EXTT3=
EXTT4=
EXTT5=
EXTT6=
EXTT7=
EXTT8=
EXTT9=
PLAYORDER=
